<svg width="20" height="29" viewBox="0 0 20 29" fill="none" xmlns="http://www.w3.org/2000/svg">
<path d="M11.3091 1L11.4149 0.181118L11.3622 0.174312H11.3091V1ZM11.3091 16.3976L11.1145 15.5951L9.93212 15.8819L10.6353 16.8748L11.3091 16.3976ZM17.8449 6.48772L18.6434 6.27742L18.6434 6.27742L17.8449 6.48772ZM17.867 6.57158L17.0686 6.78188V6.78188L17.867 6.57158ZM16.0663 3.18465L15.4128 3.68924V3.68924L16.0663 3.18465ZM16.4869 3.72942L17.1405 3.22483V3.22483L16.4869 3.72942ZM17.8433 10.8196L17.0473 10.6004L17.8433 10.8196ZM17.745 11.1767L18.541 11.3959V11.3959L17.745 11.1767ZM12.7123 16.0572L12.9069 16.8596V16.8596L12.7123 16.0572ZM12.0853 1.10029L11.9795 1.91917L12.0853 1.10029ZM14.2048 1.7066L14.548 0.955655L14.548 0.955654L14.2048 1.7066ZM16.8155 13.2005L16.1305 12.7395L16.1305 12.7395L16.8155 13.2005ZM6.25063 18.8939L6.90748 18.3935L6.25063 18.8939ZM11.9028 27.6769C12.1791 28.0397 12.6972 28.1097 13.06 27.8334C13.4227 27.5571 13.4928 27.039 13.2165 26.6763L11.9028 27.6769ZM12.6248 26.4312C12.1687 26.4312 11.7991 26.8009 11.7991 27.2569C11.7991 27.7129 12.1687 28.0826 12.6248 28.0826V26.4312ZM10.6606 6.11927L11.3813 5.71648L11.145 5.29358H10.6606V6.11927ZM10.6606 11.3211V12.1468H11.1067L11.3512 11.7736L10.6606 11.3211ZM11.009 6.74275L10.2882 7.14554L11.009 6.74275ZM10.8584 11.0192L11.549 11.4717H11.549L10.8584 11.0192ZM18.2618 26.2146L17.588 26.6918L18.2618 26.2146ZM1.82569 26.7615V1.82569H0.174312V26.7615H1.82569ZM1.82569 1.82569H11.3091V0.174312H1.82569V1.82569ZM10.6353 16.8748L17.588 26.6918L18.9356 25.7373L11.9829 15.9203L10.6353 16.8748ZM17.0465 6.69801L17.0686 6.78188L18.6655 6.36129L18.6434 6.27742L17.0465 6.69801ZM15.4128 3.68924L15.8334 4.23401L17.1405 3.22483L16.7199 2.68006L15.4128 3.68924ZM17.0473 10.6004L16.9489 10.9575L18.541 11.3959L18.6394 11.0388L17.0473 10.6004ZM12.5176 15.2548L11.1145 15.5951L11.5037 17.2L12.9069 16.8596L12.5176 15.2548ZM11.2033 1.81888L11.9795 1.91917L12.1911 0.281404L11.4149 0.181118L11.2033 1.81888ZM11.9795 1.91917C12.6303 2.00324 13.2647 2.18473 13.8615 2.45754L14.548 0.955654C13.8007 0.61399 13.0061 0.386697 12.1911 0.281404L11.9795 1.91917ZM16.1305 12.7395C15.2824 13.9995 13.9937 14.8967 12.5176 15.2548L12.9069 16.8596C14.7836 16.4044 16.4221 15.2636 17.5004 13.6616L16.1305 12.7395ZM16.9489 10.9575C16.7743 11.5919 16.4978 12.1937 16.1305 12.7395L17.5004 13.6616C17.9675 12.9676 18.319 12.2024 18.541 11.3959L16.9489 10.9575ZM16.7199 2.68006C16.1466 1.93752 15.4012 1.34568 14.548 0.955655L13.8615 2.45754C14.4709 2.73612 15.0033 3.15886 15.4128 3.68924L16.7199 2.68006ZM17.0686 6.78188C17.3984 8.03431 17.3911 9.35172 17.0473 10.6004L18.6394 11.0388C19.0605 9.50922 19.0695 7.89546 18.6655 6.36129L17.0686 6.78188ZM18.6434 6.27742C18.3516 5.16962 17.8406 4.13161 17.1405 3.22483L15.8334 4.23401C16.3985 4.96594 16.811 5.80381 17.0465 6.69801L18.6434 6.27742ZM1.82569 1.82569L1.82569 1.82569V0.174312C0.913659 0.174312 0.174312 0.913657 0.174312 1.82569H1.82569ZM6.77982 27.0917V18.9939H5.12844V27.0917H6.77982ZM5.59379 19.3942L11.9028 27.6769L13.2165 26.6763L6.90748 18.3935L5.59379 19.3942ZM6.77982 18.9939C6.77982 19.6262 5.97693 19.8972 5.59379 19.3942L6.90748 18.3935C6.33276 17.639 5.12844 18.0455 5.12844 18.9939H6.77982ZM1.49541 28.0826H5.78899V26.4312H1.49541V28.0826ZM12.6248 28.0826H17.7227V26.4312H12.6248V28.0826ZM5.12844 6.94495H10.6606V5.29358H5.12844V6.94495ZM10.6606 10.4954H7.68807V12.1468H10.6606V10.4954ZM9.93977 6.52205L10.2882 7.14554L11.7297 6.33997L11.3813 5.71648L9.93977 6.52205ZM10.1677 10.5667L9.9699 10.8686L11.3512 11.7736L11.549 11.4717L10.1677 10.5667ZM10.2882 7.14554C10.8883 8.21938 10.8418 9.53773 10.1677 10.5667L11.549 11.4717C12.5602 9.92825 12.6299 7.95072 11.7297 6.33997L10.2882 7.14554ZM5.12844 27.0917C5.12844 26.7269 5.42418 26.4312 5.78899 26.4312V28.0826C6.33621 28.0826 6.77982 27.639 6.77982 27.0917H5.12844ZM17.588 26.6918C17.5105 26.5824 17.5887 26.4312 17.7227 26.4312V28.0826C18.9289 28.0826 19.6327 26.7216 18.9356 25.7373L17.588 26.6918ZM0.174312 26.7615C0.174312 27.4911 0.765789 28.0826 1.49541 28.0826V26.4312C1.67782 26.4312 1.82569 26.5791 1.82569 26.7615H0.174312Z" fill="#FDFDFD"/>
</svg>
